<svg width="128" height="128" viewBox="0 0 128 128" fill="none"
    xmlns="http://www.w3.org/2000/svg">
    <rect width="128" height="128" fill="white"/>
    <path d="M38.0541 6.91943H34.5946V10.3789H38.0541V6.91943Z" fill="black"/>
    <path d="M48.4324 6.91943H44.973V10.3789H48.4324V6.91943Z" fill="black"/>
    <path d="M51.8919 6.91943H48.4324V10.3789H51.8919V6.91943Z" fill="black"/>
    <path d="M55.3514 6.91943H51.8919V10.3789H55.3514V6.91943Z" fill="black"/>
    <path d="M62.2703 6.91943H58.8108V10.3789H62.2703V6.91943Z" fill="black"/>
    <path d="M72.6487 6.91943H69.1892V10.3789H72.6487V6.91943Z" fill="black"/>
    <path d="M89.946 6.91943H86.4865V10.3789H89.946V6.91943Z" fill="black"/>
    <path d="M41.5136 10.3791L38.0541 10.3789L38.0541 13.8385H41.5136V10.3791Z" fill="black"/>
    <path d="M44.973 10.3789L41.5136 10.3791V13.8385H44.973L44.973 10.3789Z" fill="black"/>
    <path d="M48.4324 10.3789H44.973L44.973 13.8385H48.4324V10.3789Z" fill="black"/>
    <path d="M51.8919 10.3789H48.4324V13.8385H51.8919V10.3789Z" fill="black"/>
    <path d="M55.3514 10.3789H51.8919V13.8385H55.3514V10.3789Z" fill="black"/>
    <path d="M58.8108 10.3789H55.3514V13.8385H58.8109L58.8108 10.3789Z" fill="black"/>
    <path d="M72.6487 10.3789H69.1892V13.8385H72.6487V10.3789Z" fill="black"/>
    <path d="M76.1082 10.3791L72.6487 10.3789V13.8385H76.1082V10.3791Z" fill="black"/>
    <path d="M44.973 13.8385H41.5136L41.5136 17.2982H44.973V13.8385Z" fill="black"/>
    <path d="M51.8919 13.8385H48.4324L48.4325 17.2982H51.8919V13.8385Z" fill="black"/>
    <path d="M58.8109 13.8385H55.3514L55.3514 17.2982H58.8109V13.8385Z" fill="black"/>
    <path d="M62.2703 13.8388L58.8109 13.8385V17.2982H62.2703V13.8388Z" fill="black"/>
    <path d="M65.7298 13.8388H62.2703V17.2982H65.7298V13.8388Z" fill="black"/>
    <path d="M69.1892 13.8385L65.7298 13.8388V17.2982H69.1892L69.1892 13.8385Z" fill="black"/>
    <path d="M72.6487 13.8385H69.1892L69.1892 17.2982H72.6487V13.8385Z" fill="black"/>
    <path d="M76.1082 13.8385H72.6487V17.2982H76.1082V13.8385Z" fill="black"/>
    <path d="M83.0271 13.8388H79.5676V17.2982H83.0271V13.8388Z" fill="black"/>
    <path d="M89.946 13.8388H86.4865V17.2982H89.946V13.8388Z" fill="black"/>
    <path d="M38.0542 17.2988H34.5947V20.7583H38.0542V17.2988Z" fill="black"/>
    <path d="M41.5136 17.2982L38.0542 17.2988V20.7583H41.5137L41.5136 17.2982Z" fill="black"/>
    <path d="M48.4325 17.2982H44.973L44.9731 20.7583H48.4326L48.4325 17.2982Z" fill="black"/>
    <path d="M51.8919 17.2982H48.4325L48.4326 20.7583H51.8921L51.8919 17.2982Z" fill="black"/>
    <path d="M65.7298 17.2982H62.2703L62.2705 20.7583H65.73L65.7298 17.2982Z" fill="black"/>
    <path d="M69.1892 17.2982H65.7298L65.73 20.7583H69.1894L69.1892 17.2982Z" fill="black"/>
    <path d="M83.0271 17.2982H79.5676L79.5674 20.7583H83.027L83.0271 17.2982Z" fill="black"/>
    <path d="M86.4865 17.2982H83.0271L83.027 20.7583H86.4867L86.4865 17.2982Z" fill="black"/>
    <path d="M38.0541 20.7568H34.5946V24.2163H38.0541V20.7568Z" fill="black"/>
    <path d="M41.5136 20.7568H38.0541V24.2163H41.5136V20.7568Z" fill="black"/>
    <path d="M65.7298 20.7568H62.2703V24.2163H65.7298V20.7568Z" fill="black"/>
    <path d="M69.1892 20.7568H65.7298V24.2163H69.1892V20.7568Z" fill="black"/>
    <path d="M76.1082 20.7568H72.6487V24.2163H76.1082V20.7568Z" fill="black"/>
    <path d="M83.0271 20.7568H79.5676V24.2163H83.0271V20.7568Z" fill="black"/>
    <path d="M86.4865 20.7568H83.0271V24.2163H86.4865V20.7568Z" fill="black"/>
    <path d="M38.0541 24.2163H34.5946L34.5947 27.6763H38.0542L38.0541 24.2163Z" fill="black"/>
    <path d="M41.5136 24.2163H38.0541L38.0542 27.6763H41.5137L41.5136 24.2163Z" fill="black"/>
    <path d="M44.9731 24.2168L41.5136 24.2163L41.5137 27.6763H44.9731V24.2168Z" fill="black"/>
    <path d="M51.8921 24.2168H48.4326V27.6763H51.8921V24.2168Z" fill="black"/>
    <path d="M62.2703 24.2163L58.811 24.2168V27.6763H62.2705L62.2703 24.2163Z" fill="black"/>
    <path d="M69.1892 24.2163H65.7298L65.73 27.6763H69.1894L69.1892 24.2163Z" fill="black"/>
    <path d="M79.5676 24.2163H76.1082L76.1079 27.6763H79.5674L79.5676 24.2163Z" fill="black"/>
    <path d="M83.0271 24.2163H79.5676L79.5674 27.6763H83.027L83.0271 24.2163Z" fill="black"/>
    <path d="M86.4865 24.2163H83.0271L83.027 27.6763H86.4867L86.4865 24.2163Z" fill="black"/>
    <path d="M89.9458 24.2168L86.4865 24.2163L86.4867 27.6763H89.9458V24.2168Z" fill="black"/>
    <path d="M93.4053 24.2168H89.9458V27.6763H93.4053V24.2168Z" fill="black"/>
    <path d="M38.0542 27.6763H34.5947V31.1352H38.0542V27.6763Z" fill="black"/>
    <path d="M44.9731 27.6763H41.5137L41.5137 31.1352H44.9731V27.6763Z" fill="black"/>
    <path d="M51.8921 27.6763H48.4326V31.1352H51.8921V27.6763Z" fill="black"/>
    <path d="M58.811 27.6763L55.3516 27.6758V31.1352H58.811L58.811 27.6763Z" fill="black"/>
    <path d="M65.73 27.6763H62.2705L62.2705 31.1352H65.73L65.73 27.6763Z" fill="black"/>
    <path d="M72.6484 27.6758L69.1894 27.6763L69.189 31.1352H72.6484V27.6758Z" fill="black"/>
    <path d="M79.5674 27.6763H76.1079V31.1352H79.5674V27.6763Z" fill="black"/>
    <path d="M86.4867 27.6763H83.027L83.0273 31.1352H86.4867V27.6763Z" fill="black"/>
    <path d="M93.4053 27.6763H89.9458L89.9458 31.1352H93.4053V27.6763Z" fill="black"/>
    <path d="M38.0542 31.1352H34.5947L34.5946 34.5953H38.0541L38.0542 31.1352Z" fill="black"/>
    <path d="M48.4326 31.1352H44.9731L44.973 34.5953H48.4324L48.4326 31.1352Z" fill="black"/>
    <path d="M58.811 31.1352H55.3516L55.3514 34.5953H58.8109L58.811 31.1352Z" fill="black"/>
    <path d="M69.189 31.1352H65.73L65.7298 34.5953H69.1892L69.189 31.1352Z" fill="black"/>
    <path d="M72.6484 31.1352H69.189L69.1892 34.5953H72.6487L72.6484 31.1352Z" fill="black"/>
    <path d="M76.1079 31.1352H72.6484L72.6487 34.5953H76.1082L76.1079 31.1352Z" fill="black"/>
    <path d="M79.5674 31.1352H76.1079L76.1082 34.5953H79.5676L79.5674 31.1352Z" fill="black"/>
    <path d="M83.0273 31.1352H79.5674L79.5676 34.5953H83.0271L83.0273 31.1352Z" fill="black"/>
    <path d="M93.4053 31.1352H89.9458L89.946 34.5953H93.4055L93.4053 31.1352Z" fill="black"/>
    <path d="M10.3784 34.5955H6.91895V38.0549H10.3784V34.5955Z" fill="black"/>
    <path d="M24.2163 34.5955H20.7568V38.0549H24.2163V34.5955Z" fill="black"/>
    <path d="M31.1351 34.5955H27.6757V38.0549H31.1351V34.5955Z" fill="black"/>
    <path d="M34.5946 34.5953L31.1351 34.5955V38.0549H34.5946L34.5946 34.5953Z" fill="black"/>
    <path d="M38.0541 34.5953H34.5946L34.5946 38.0549H38.0541V34.5953Z" fill="black"/>
    <path d="M44.973 34.5953L41.5136 34.5955V38.0549H44.973L44.973 34.5953Z" fill="black"/>
    <path d="M51.8919 34.5955L48.4324 34.5953L48.4325 38.0549H51.8919V34.5955Z" fill="black"/>
    <path d="M62.2703 34.5955L58.8109 34.5953L58.8108 38.0549H62.2703V34.5955Z" fill="black"/>
    <path d="M69.1892 34.5953H65.7298V38.0549H69.1892V34.5953Z" fill="black"/>
    <path d="M79.5676 34.5953H76.1082L76.1081 38.0549H79.5676V34.5953Z" fill="black"/>
    <path d="M83.0271 34.5953H79.5676V38.0549H83.0271V34.5953Z" fill="black"/>
    <path d="M86.4865 34.5955L83.0271 34.5953V38.0549H86.4865V34.5955Z" fill="black"/>
    <path d="M89.946 34.5953L86.4865 34.5955V38.0549H89.946L89.946 34.5953Z" fill="black"/>
    <path d="M96.8649 34.5955L93.4055 34.5953L93.4054 38.0549H96.8649V34.5955Z" fill="black"/>
    <path d="M100.324 34.5955H96.8649V38.0549H100.324V34.5955Z" fill="black"/>
    <path d="M103.784 34.5955H100.324V38.0549H103.784V34.5955Z" fill="black"/>
    <path d="M107.243 34.5955H103.784V38.0549H107.243V34.5955Z" fill="black"/>
    <path d="M110.703 34.5955H107.243V38.0549H110.703V34.5955Z" fill="black"/>
    <path d="M121.081 34.5955H117.622V38.0549H121.081V34.5955Z" fill="black"/>
    <path d="M13.8379 38.0547L10.3784 38.0549L10.3784 41.5142H13.8379V38.0547Z" fill="black"/>
    <path d="M27.6757 38.0549H24.2163L24.2163 41.5142H27.6758L27.6757 38.0549Z" fill="black"/>
    <path d="M34.5946 38.0549H31.1351L31.1353 41.5142H34.5947L34.5946 38.0549Z" fill="black"/>
    <path d="M44.973 38.0549H41.5136L41.5137 41.5142H44.9731L44.973 38.0549Z" fill="black"/>
    <path d="M48.4325 38.0549H44.973L44.9731 41.5142H48.4326L48.4325 38.0549Z" fill="black"/>
    <path d="M62.2703 38.0549H58.8108L58.811 41.5142H62.2705L62.2703 38.0549Z" fill="black"/>
    <path d="M65.7298 38.0549H62.2703L62.2705 41.5142H65.73L65.7298 38.0549Z" fill="black"/>
    <path d="M69.1892 38.0549H65.7298L65.73 41.5142H69.1894L69.1892 38.0549Z" fill="black"/>
    <path d="M72.6484 38.0547L69.1892 38.0549L69.1894 41.5142H72.6484V38.0547Z" fill="black"/>
    <path d="M83.0271 38.0549H79.5676L79.5674 41.5142H83.027L83.0271 38.0549Z" fill="black"/>
    <path d="M86.4865 38.0549H83.0271L83.027 41.5142H86.4867L86.4865 38.0549Z" fill="black"/>
    <path d="M89.946 38.0549H86.4865L86.4867 41.5142H89.9458L89.946 38.0549Z" fill="black"/>
    <path d="M96.8649 38.0549H93.4054L93.4053 41.5142H96.8647L96.8649 38.0549Z" fill="black"/>
    <path d="M110.703 38.0549H107.243L107.243 41.5142H110.703L110.703 38.0549Z" fill="black"/>
    <path d="M114.162 38.0547L110.703 38.0549L110.703 41.5142H114.162V38.0547Z" fill="black"/>
    <path d="M121.081 38.0549H117.622L117.622 41.5142H121.081L121.081 38.0549Z" fill="black"/>
    <path d="M10.3784 41.5142L6.91895 41.5136V44.973H10.3784L10.3784 41.5142Z" fill="black"/>
    <path d="M17.2973 41.5136L13.8379 41.5142L13.8379 44.973H17.2973V41.5136Z" fill="black"/>
    <path d="M24.2163 41.5142L20.7568 41.5136V44.973H24.2163L24.2163 41.5142Z" fill="black"/>
    <path d="M27.6758 41.5142H24.2163L24.2163 44.973H27.6757L27.6758 41.5142Z" fill="black"/>
    <path d="M31.1353 41.5142H27.6758L27.6757 44.973H31.1351L31.1353 41.5142Z" fill="black"/>
    <path d="M34.5947 41.5142H31.1353L31.1351 44.973H34.5946L34.5947 41.5142Z" fill="black"/>
    <path d="M38.0541 41.5136L34.5947 41.5142L34.5946 44.973H38.0541V41.5136Z" fill="black"/>
    <path d="M55.3514 41.5136H51.8919V44.973H55.3514V41.5136Z" fill="black"/>
    <path d="M58.811 41.5142L55.3514 41.5136V44.973H58.8109L58.811 41.5142Z" fill="black"/>
    <path d="M62.2705 41.5142H58.811L58.8109 44.973H62.2703L62.2705 41.5142Z" fill="black"/>
    <path d="M72.6484 41.5142H69.1894L69.1892 44.973H72.6487L72.6484 41.5142Z" fill="black"/>
    <path d="M89.9458 41.5142H86.4867L86.4865 44.973H89.946L89.9458 41.5142Z" fill="black"/>
    <path d="M96.8647 41.5142H93.4053L93.4054 44.973H96.8649L96.8647 41.5142Z" fill="black"/>
    <path d="M110.703 41.5142H107.243L107.243 44.973H110.703L110.703 41.5142Z" fill="black"/>
    <path d="M117.622 41.5142H114.162L114.162 44.973H117.622L117.622 41.5142Z" fill="black"/>
    <path d="M17.2973 44.973H13.8379L13.8379 48.4331H17.2973L17.2973 44.973Z" fill="black"/>
    <path d="M24.2163 44.973H20.7568L20.7568 48.4331H24.2163L24.2163 44.973Z" fill="black"/>
    <path d="M34.5946 44.973H31.1351L31.1353 48.4331H34.5947L34.5946 44.973Z" fill="black"/>
    <path d="M44.9731 44.9736H41.5137V48.4331H44.9731V44.9736Z" fill="black"/>
    <path d="M51.8919 44.973L48.4326 44.9736V48.4331H51.8921L51.8919 44.973Z" fill="black"/>
    <path d="M55.3514 44.973H51.8919L51.8921 48.4331H55.3516L55.3514 44.973Z" fill="black"/>
    <path d="M65.73 44.9736L62.2703 44.973L62.2705 48.4331H65.73V44.9736Z" fill="black"/>
    <path d="M76.1084 44.9736L72.6487 44.973L72.6489 48.4331H76.1084V44.9736Z" fill="black"/>
    <path d="M79.5674 44.9736H76.1084V48.4331H79.5674V44.9736Z" fill="black"/>
    <path d="M86.4865 44.973L83.0273 44.9736V48.4331H86.4867L86.4865 44.973Z" fill="black"/>
    <path d="M93.4054 44.973H89.946L89.9458 48.4331H93.4053L93.4054 44.973Z" fill="black"/>
    <path d="M96.8649 44.973H93.4054L93.4053 48.4331H96.8647L96.8649 44.973Z" fill="black"/>
    <path d="M100.324 44.9736L96.8649 44.973L96.8647 48.4331H100.324V44.9736Z" fill="black"/>
    <path d="M10.3784 48.4326H6.91895V51.8921H10.3784V48.4326Z" fill="black"/>
    <path d="M17.2973 48.4331H13.8379V51.8921H17.2973V48.4331Z" fill="black"/>
    <path d="M20.7568 48.4331H17.2973V51.8921H20.7569L20.7568 48.4331Z" fill="black"/>
    <path d="M31.1353 48.4331L27.6758 48.4326V51.8921H31.1352L31.1353 48.4331Z" fill="black"/>
    <path d="M38.0542 48.4326L34.5947 48.4331L34.5947 51.8921H38.0542V48.4326Z" fill="black"/>
    <path d="M44.9731 48.4331H41.5137V51.8921H44.9731V48.4331Z" fill="black"/>
    <path d="M51.8921 48.4331H48.4326V51.8921H51.8921V48.4331Z" fill="black"/>
    <path d="M55.3516 48.4331H51.8921V51.8921H55.3516V48.4331Z" fill="black"/>
    <path d="M65.73 48.4331H62.2705V51.8921H65.73V48.4331Z" fill="black"/>
    <path d="M86.4867 48.4331H83.0273V51.8921H86.4867V48.4331Z" fill="black"/>
    <path d="M89.9458 48.4331H86.4867V51.8921H89.9458L89.9458 48.4331Z" fill="black"/>
    <path d="M93.4053 48.4331H89.9458L89.9458 51.8921H93.4053V48.4331Z" fill="black"/>
    <path d="M100.324 48.4331H96.8647L96.8647 51.8921H100.324V48.4331Z" fill="black"/>
    <path d="M103.784 48.4326L100.324 48.4331V51.8921H103.784V48.4326Z" fill="black"/>
    <path d="M110.703 48.4326H107.243V51.8921H110.703V48.4326Z" fill="black"/>
    <path d="M121.081 48.4326H117.622V51.8921H121.081V48.4326Z" fill="black"/>
    <path d="M10.3784 51.8921H6.91895V55.352H10.3784V51.8921Z" fill="black"/>
    <path d="M17.2973 51.8921H13.8379L13.8379 55.352H17.2973L17.2973 51.8921Z" fill="black"/>
    <path d="M20.7569 51.8921H17.2973L17.2973 55.352H20.7568L20.7569 51.8921Z" fill="black"/>
    <path d="M24.2163 51.8925L20.7569 51.8921L20.7568 55.352H24.2163V51.8925Z" fill="black"/>
    <path d="M27.6758 51.8921L24.2163 51.8925V55.352H27.6757L27.6758 51.8921Z" fill="black"/>
    <path d="M34.5947 51.8921H31.1352L31.1352 55.352H34.5946L34.5947 51.8921Z" fill="black"/>
    <path d="M44.9731 51.8921H41.5137L41.5136 55.352H44.973L44.9731 51.8921Z" fill="black"/>
    <path d="M48.4326 51.8921H44.9731L44.973 55.352H48.4324L48.4326 51.8921Z" fill="black"/>
    <path d="M58.8109 51.8925L55.3516 51.8921L55.3514 55.352H58.8109V51.8925Z" fill="black"/>
    <path d="M69.1892 51.8925L65.73 51.8921L65.7298 55.352H69.1892V51.8925Z" fill="black"/>
    <path d="M72.6487 51.8925H69.1892V55.352H72.6487V51.8925Z" fill="black"/>
    <path d="M76.1082 51.8925H72.6487V55.352H76.1082V51.8925Z" fill="black"/>
    <path d="M79.5676 51.8925H76.1082V55.352H79.5676V51.8925Z" fill="black"/>
    <path d="M93.4053 51.8921H89.9458L89.946 55.352H93.4055L93.4053 51.8921Z" fill="black"/>
    <path d="M96.8647 51.8921H93.4053L93.4055 55.352H96.8649L96.8647 51.8921Z" fill="black"/>
    <path d="M103.784 51.8921H100.324L100.324 55.352H103.784L103.784 51.8921Z" fill="black"/>
    <path d="M114.162 51.8925L110.703 51.8921L110.703 55.352H114.162V51.8925Z" fill="black"/>
    <path d="M17.2973 55.352H13.8379L13.8379 58.812H17.2973L17.2973 55.352Z" fill="black"/>
    <path d="M24.2163 55.352H20.7568L20.7568 58.812H24.2163L24.2163 55.352Z" fill="black"/>
    <path d="M27.6757 55.352H24.2163L24.2163 58.812H27.6758L27.6757 55.352Z" fill="black"/>
    <path d="M31.1352 55.352H27.6757L27.6758 58.812H31.1352L31.1352 55.352Z" fill="black"/>
    <path d="M44.973 55.352H41.5136L41.5137 58.812H44.9731L44.973 55.352Z" fill="black"/>
    <path d="M48.4324 55.352H44.973L44.9731 58.812H48.4326L48.4324 55.352Z" fill="black"/>
    <path d="M51.8921 55.3525L48.4324 55.352L48.4326 58.812H51.8921V55.3525Z" fill="black"/>
    <path d="M58.8109 55.352H55.3514L55.3516 58.812H58.811L58.8109 55.352Z" fill="black"/>
    <path d="M62.2705 55.3525L58.8109 55.352L58.811 58.812H62.2705V55.3525Z" fill="black"/>
    <path d="M69.1892 55.352H65.7298L65.73 58.812H69.1894L69.1892 55.352Z" fill="black"/>
    <path d="M72.6487 55.352H69.1892L69.1894 58.812H72.6484L72.6487 55.352Z" fill="black"/>
    <path d="M79.5676 55.352H76.1082L76.1079 58.812H79.5674L79.5676 55.352Z" fill="black"/>
    <path d="M83.027 55.3525L79.5676 55.352L79.5674 58.812H83.027V55.3525Z" fill="black"/>
    <path d="M89.946 55.352L86.4863 55.3525V58.812H89.9458L89.946 55.352Z" fill="black"/>
    <path d="M93.4055 55.352H89.946L89.9458 58.812H93.4053L93.4055 55.352Z" fill="black"/>
    <path d="M96.8649 55.352H93.4055L93.4053 58.812H96.8647L96.8649 55.352Z" fill="black"/>
    <path d="M100.324 55.352H96.8649L96.8647 58.812H100.324L100.324 55.352Z" fill="black"/>
    <path d="M107.243 55.3525L103.784 55.352L103.784 58.812H107.243V55.3525Z" fill="black"/>
    <path d="M117.622 55.3525L114.162 55.352L114.162 58.812H117.622V55.3525Z" fill="black"/>
    <path d="M10.3784 58.8115H6.91895V62.271H10.3784V58.8115Z" fill="black"/>
    <path d="M13.8379 58.812L10.3784 58.8115V62.271H13.8379L13.8379 58.812Z" fill="black"/>
    <path d="M17.2973 58.812H13.8379L13.8379 62.271H17.2973V58.812Z" fill="black"/>
    <path d="M20.7568 58.812H17.2973V62.271H20.7569L20.7568 58.812Z" fill="black"/>
    <path d="M24.2163 58.812H20.7568L20.7569 62.271H24.2163V58.812Z" fill="black"/>
    <path d="M34.5947 58.8115L31.1352 58.812L31.1353 62.271H34.5947V58.8115Z" fill="black"/>
    <path d="M44.9731 58.812H41.5137V62.271H44.9731V58.812Z" fill="black"/>
    <path d="M48.4326 58.812H44.9731V62.271H48.4326V58.812Z" fill="black"/>
    <path d="M55.3516 58.812H51.8921L51.8921 62.271H55.3516L55.3516 58.812Z" fill="black"/>
    <path d="M58.811 58.812H55.3516L55.3516 62.271H58.811V58.812Z" fill="black"/>
    <path d="M62.2705 58.812H58.811V62.271H62.2705V58.812Z" fill="black"/>
    <path d="M65.73 58.812H62.2705V62.271H65.73L65.73 58.812Z" fill="black"/>
    <path d="M69.1894 58.812H65.73L65.73 62.271H69.1894V58.812Z" fill="black"/>
    <path d="M72.6484 58.812H69.1894V62.271H72.6484V58.812Z" fill="black"/>
    <path d="M83.027 58.812H79.5674L79.5674 62.271H83.027V58.812Z" fill="black"/>
    <path d="M89.9458 58.812H86.4863V62.271H89.9458V58.812Z" fill="black"/>
    <path d="M96.8647 58.812H93.4053L93.4053 62.271H96.8647V58.812Z" fill="black"/>
    <path d="M100.324 58.812H96.8647V62.271H100.324V58.812Z" fill="black"/>
    <path d="M103.784 58.812H100.324V62.271H103.784L103.784 58.812Z" fill="black"/>
    <path d="M10.3784 62.271H6.91895V65.7297H10.3784V62.271Z" fill="black"/>
    <path d="M13.8379 62.271H10.3784V65.7297H13.8379L13.8379 62.271Z" fill="black"/>
    <path d="M20.7569 62.271H17.2973L17.2973 65.7297H20.7568L20.7569 62.271Z" fill="black"/>
    <path d="M24.2163 62.271H20.7569L20.7568 65.7297H24.2163L24.2163 62.271Z" fill="black"/>
    <path d="M27.6757 62.2703L24.2163 62.271L24.2163 65.7297H27.6757V62.2703Z" fill="black"/>
    <path d="M31.1353 62.271L27.6757 62.2703V65.7297H31.1351L31.1353 62.271Z" fill="black"/>
    <path d="M38.0541 62.2703L34.5947 62.271L34.5946 65.7297H38.0541V62.2703Z" fill="black"/>
    <path d="M41.5137 62.271L38.0541 62.2703V65.7297H41.5136L41.5137 62.271Z" fill="black"/>
    <path d="M51.8921 62.271H48.4326L48.4325 65.7297H51.8919L51.8921 62.271Z" fill="black"/>
    <path d="M69.1894 62.271H65.73L65.7298 65.7297H69.1892L69.1894 62.271Z" fill="black"/>
    <path d="M72.6484 62.271H69.1894L69.1892 65.7297H72.6487L72.6484 62.271Z" fill="black"/>
    <path d="M76.1082 62.2703L72.6484 62.271L72.6487 65.7297H76.1082V62.2703Z" fill="black"/>
    <path d="M79.5674 62.271L76.1082 62.2703V65.7297H79.5676L79.5674 62.271Z" fill="black"/>
    <path d="M83.027 62.271H79.5674L79.5676 65.7297H83.0271L83.027 62.271Z" fill="black"/>
    <path d="M86.4863 62.271H83.027L83.0271 65.7297H86.4865L86.4863 62.271Z" fill="black"/>
    <path d="M93.4053 62.271H89.9458L89.946 65.7297H93.4055L93.4053 62.271Z" fill="black"/>
    <path d="M100.324 62.271H96.8647L96.8649 65.7297H100.324L100.324 62.271Z" fill="black"/>
    <path d="M107.243 62.2703L103.784 62.271L103.784 65.7297H107.243V62.2703Z" fill="black"/>
    <path d="M110.703 62.2703H107.243V65.7297H110.703V62.2703Z" fill="black"/>
    <path d="M117.622 62.2703H114.162V65.7297H117.622V62.2703Z" fill="black"/>
    <path d="M10.3784 65.7297H6.91895V69.1889H10.3784V65.7297Z" fill="black"/>
    <path d="M13.8379 65.7297H10.3784V69.1889H13.8379L13.8379 65.7297Z" fill="black"/>
    <path d="M24.2163 65.7297H20.7568L20.7568 69.1889H24.2163L24.2163 65.7297Z" fill="black"/>
    <path d="M27.6757 65.7297H24.2163L24.2163 69.1889H27.6758L27.6757 65.7297Z" fill="black"/>
    <path d="M34.5946 65.7297H31.1351L31.1353 69.1889H34.5947L34.5946 65.7297Z" fill="black"/>
    <path d="M38.0541 65.7297H34.5946L34.5947 69.1889H38.0542L38.0541 65.7297Z" fill="black"/>
    <path d="M41.5136 65.7297H38.0541L38.0542 69.1889H41.5137L41.5136 65.7297Z" fill="black"/>
    <path d="M44.9731 65.7295L41.5136 65.7297L41.5137 69.1889H44.9731V65.7295Z" fill="black"/>
    <path d="M62.2705 65.7295H58.811V69.1889H62.2705V65.7295Z" fill="black"/>
    <path d="M65.7298 65.7297L62.2705 65.7295V69.1889H65.73L65.7298 65.7297Z" fill="black"/>
    <path d="M72.6487 65.7297H69.1892L69.189 69.1889H72.6484L72.6487 65.7297Z" fill="black"/>
    <path d="M79.5676 65.7297H76.1082L76.1079 69.1889H79.5674L79.5676 65.7297Z" fill="black"/>
    <path d="M86.4865 65.7297H83.0271L83.0273 69.1889H86.4867L86.4865 65.7297Z" fill="black"/>
    <path d="M89.946 65.7297H86.4865L86.4867 69.1889H89.9458L89.946 65.7297Z" fill="black"/>
    <path d="M93.4055 65.7297H89.946L89.9458 69.1889H93.4053L93.4055 65.7297Z" fill="black"/>
    <path d="M110.703 65.7297H107.243L107.243 69.1889H110.703L110.703 65.7297Z" fill="black"/>
    <path d="M114.162 65.7297H110.703L110.703 69.1889H114.162L114.162 65.7297Z" fill="black"/>
    <path d="M117.622 65.7297H114.162L114.162 69.1889H117.622L117.622 65.7297Z" fill="black"/>
    <path d="M10.3784 69.1889H6.91895V72.6491H10.3784V69.1889Z" fill="black"/>
    <path d="M17.2973 69.1896L13.8379 69.1889L13.8379 72.6491H17.2973V69.1896Z" fill="black"/>
    <path d="M20.7568 69.1889L17.2973 69.1896V72.6491H20.7568L20.7568 69.1889Z" fill="black"/>
    <path d="M24.2163 69.1889H20.7568L20.7568 72.6491H24.2163L24.2163 69.1889Z" fill="black"/>
    <path d="M31.1353 69.1889H27.6758L27.6757 72.6491H31.1351L31.1353 69.1889Z" fill="black"/>
    <path d="M34.5947 69.1889H31.1353L31.1351 72.6491H34.5946L34.5947 69.1889Z" fill="black"/>
    <path d="M44.9731 69.1889H41.5137L41.5136 72.6491H44.973L44.9731 69.1889Z" fill="black"/>
    <path d="M51.8919 69.1896H48.4325V72.6491H51.8919V69.1896Z" fill="black"/>
    <path d="M55.3514 69.1896H51.8919V72.6491H55.3514V69.1896Z" fill="black"/>
    <path d="M62.2705 69.1889H58.811L58.8108 72.6491H62.2703L62.2705 69.1889Z" fill="black"/>
    <path d="M65.73 69.1889H62.2705L62.2703 72.6491H65.7298L65.73 69.1889Z" fill="black"/>
    <path d="M69.189 69.1889H65.73L65.7298 72.6491H69.1892L69.189 69.1889Z" fill="black"/>
    <path d="M79.5674 69.1889H76.1079L76.1081 72.6491H79.5676L79.5674 69.1889Z" fill="black"/>
    <path d="M83.0273 69.1889H79.5674L79.5676 72.6491H83.0271L83.0273 69.1889Z" fill="black"/>
    <path d="M86.4867 69.1889H83.0273L83.0271 72.6491H86.4865L86.4867 69.1889Z" fill="black"/>
    <path d="M89.9458 69.1889H86.4867L86.4865 72.6491H89.946L89.9458 69.1889Z" fill="black"/>
    <path d="M93.4053 69.1889H89.9458L89.946 72.6491H93.4055L93.4053 69.1889Z" fill="black"/>
    <path d="M96.8649 69.1896L93.4053 69.1889L93.4055 72.6491H96.8649V69.1896Z" fill="black"/>
    <path d="M103.784 69.1896H100.324V72.6491H103.784V69.1896Z" fill="black"/>
    <path d="M110.703 69.1889H107.243L107.243 72.6491H110.703L110.703 69.1889Z" fill="black"/>
    <path d="M117.622 69.1889H114.162L114.162 72.6491H117.622L117.622 69.1889Z" fill="black"/>
    <path d="M13.8379 72.6491H10.3784L10.3785 76.1087H13.8379L13.8379 72.6491Z" fill="black"/>
    <path d="M17.2973 72.6491H13.8379L13.8379 76.1087H17.2973V72.6491Z" fill="black"/>
    <path d="M24.2163 72.6491H20.7568L20.7568 76.1087H24.2163V72.6491Z" fill="black"/>
    <path d="M34.5946 72.6491H31.1351L31.1352 76.1087H34.5946V72.6491Z" fill="black"/>
    <path d="M44.973 72.6491H41.5136V76.1087H44.973V72.6491Z" fill="black"/>
    <path d="M51.8919 72.6491H48.4325V76.1087H51.8919V72.6491Z" fill="black"/>
    <path d="M55.3514 72.6491H51.8919V76.1087H55.3514V72.6491Z" fill="black"/>
    <path d="M62.2703 72.6491H58.8108V76.1087H62.2703V72.6491Z" fill="black"/>
    <path d="M69.1892 72.6491H65.7298L65.7298 76.1087H69.1892V72.6491Z" fill="black"/>
    <path d="M72.6487 72.6493L69.1892 72.6491V76.1087H72.6487V72.6493Z" fill="black"/>
    <path d="M79.5676 72.6491H76.1081V76.1087H79.5676V72.6491Z" fill="black"/>
    <path d="M83.0271 72.6491H79.5676V76.1087H83.0271V72.6491Z" fill="black"/>
    <path d="M93.4055 72.6491H89.946L89.946 76.1087H93.4055V72.6491Z" fill="black"/>
    <path d="M96.8649 72.6491H93.4055V76.1087H96.8649V72.6491Z" fill="black"/>
    <path d="M100.324 72.6491H96.8649V76.1087H100.324L100.324 72.6491Z" fill="black"/>
    <path d="M103.784 72.6491H100.324L100.324 76.1087H103.784V72.6491Z" fill="black"/>
    <path d="M117.622 72.6491H114.162V76.1087H117.622V72.6491Z" fill="black"/>
    <path d="M10.3785 76.1087L6.91895 76.1094V79.5688H10.3784L10.3785 76.1087Z" fill="black"/>
    <path d="M17.2973 76.1087H13.8379L13.8379 79.5688H17.2973L17.2973 76.1087Z" fill="black"/>
    <path d="M27.6758 76.1094L24.2163 76.1087L24.2163 79.5688H27.6758V76.1094Z" fill="black"/>
    <path d="M31.1352 76.1087L27.6758 76.1094V79.5688H31.1352L31.1352 76.1087Z" fill="black"/>
    <path d="M34.5946 76.1087H31.1352L31.1352 79.5688H34.5947L34.5946 76.1087Z" fill="black"/>
    <path d="M41.5136 76.1087L38.0542 76.1094V79.5688H41.5137L41.5136 76.1087Z" fill="black"/>
    <path d="M48.4325 76.1087H44.973L44.9731 79.5688H48.4326L48.4325 76.1087Z" fill="black"/>
    <path d="M55.3514 76.1087H51.8919L51.8921 79.5688H55.3516L55.3514 76.1087Z" fill="black"/>
    <path d="M58.8108 76.1087H55.3514L55.3516 79.5688H58.811L58.8108 76.1087Z" fill="black"/>
    <path d="M72.6487 76.1087H69.1892L69.189 79.5688H72.6484L72.6487 76.1087Z" fill="black"/>
    <path d="M76.1081 76.1087H72.6487L72.6484 79.5688H76.1084L76.1081 76.1087Z" fill="black"/>
    <path d="M79.5676 76.1087H76.1081L76.1084 79.5688H79.5674L79.5676 76.1087Z" fill="black"/>
    <path d="M100.324 76.1087H96.8649L96.8647 79.5688H100.324L100.324 76.1087Z" fill="black"/>
    <path d="M103.784 76.1087H100.324L100.324 79.5688H103.784L103.784 76.1087Z" fill="black"/>
    <path d="M107.243 76.1094L103.784 76.1087L103.784 79.5688H107.243V76.1094Z" fill="black"/>
    <path d="M110.703 76.1094H107.243V79.5688H110.703V76.1094Z" fill="black"/>
    <path d="M10.3784 79.5688H6.91895V83.0282H10.3784V79.5688Z" fill="black"/>
    <path d="M20.7568 79.5686L17.2973 79.5688L17.2973 83.0282H20.7568V79.5686Z" fill="black"/>
    <path d="M27.6758 79.5688H24.2163L24.2162 83.0282H27.6757L27.6758 79.5688Z" fill="black"/>
    <path d="M51.8921 79.5688H48.4326L48.4325 83.0282H51.8919L51.8921 79.5688Z" fill="black"/>
    <path d="M65.7298 79.5686H62.2703V83.0282H65.7298V79.5686Z" fill="black"/>
    <path d="M69.189 79.5688L65.7298 79.5686V83.0282H69.1892L69.189 79.5688Z" fill="black"/>
    <path d="M76.1084 79.5688H72.6484L72.6487 83.0282H76.1082L76.1084 79.5688Z" fill="black"/>
    <path d="M86.4865 79.5686H83.0272V83.0282H86.4865V79.5686Z" fill="black"/>
    <path d="M100.324 79.5688H96.8647L96.8649 83.0282H100.324L100.324 79.5688Z" fill="black"/>
    <path d="M110.703 79.5688H107.243L107.243 83.0282H110.703L110.703 79.5688Z" fill="black"/>
    <path d="M114.162 79.5686L110.703 79.5688L110.703 83.0282H114.162V79.5686Z" fill="black"/>
    <path d="M117.622 79.5686H114.162V83.0282H117.622V79.5686Z" fill="black"/>
    <path d="M24.2162 83.0282H20.7568L20.7568 86.4867H24.2163L24.2162 83.0282Z" fill="black"/>
    <path d="M27.6757 83.0282H24.2162L24.2163 86.4867H27.6758L27.6757 83.0282Z" fill="black"/>
    <path d="M31.1352 83.0273L27.6757 83.0282L27.6758 86.4867H31.1352V83.0273Z" fill="black"/>
    <path d="M34.5947 83.0273H31.1352V86.4867H34.5947V83.0273Z" fill="black"/>
    <path d="M48.4325 83.0282L44.9731 83.0273V86.4867H48.4326L48.4325 83.0282Z" fill="black"/>
    <path d="M51.8919 83.0282H48.4325L48.4326 86.4867H51.8921L51.8919 83.0282Z" fill="black"/>
    <path d="M58.811 83.0273H55.3516V86.4867H58.811V83.0273Z" fill="black"/>
    <path d="M65.7298 83.0282H62.2703L62.2705 86.4867H65.73L65.7298 83.0282Z" fill="black"/>
    <path d="M72.6487 83.0282H69.1892L69.189 86.4867H72.6484L72.6487 83.0282Z" fill="black"/>
    <path d="M76.1082 83.0282H72.6487L72.6484 86.4867H76.1084L76.1082 83.0282Z" fill="black"/>
    <path d="M83.0272 83.0282L79.5674 83.0273V86.4867H83.027L83.0272 83.0282Z" fill="black"/>
    <path d="M89.9458 83.0273L86.4865 83.0282L86.4863 86.4867H89.9458V83.0273Z" fill="black"/>
    <path d="M93.4053 83.0273H89.9458V86.4867H93.4053V83.0273Z" fill="black"/>
    <path d="M96.8649 83.0282L93.4053 83.0273V86.4867H96.8647L96.8649 83.0282Z" fill="black"/>
    <path d="M114.162 83.0282H110.703L110.703 86.4867H114.162L114.162 83.0282Z" fill="black"/>
    <path d="M117.622 83.0282H114.162L114.162 86.4867H117.622L117.622 83.0282Z" fill="black"/>
    <path d="M20.7568 86.4867L17.2974 86.4863V89.9458H20.7569L20.7568 86.4867Z" fill="black"/>
    <path d="M24.2163 86.4867H20.7568L20.7569 89.9458H24.2163V86.4867Z" fill="black"/>
    <path d="M27.6758 86.4867H24.2163V89.9458H27.6758V86.4867Z" fill="black"/>
    <path d="M34.5947 86.4867H31.1352L31.1353 89.9458H34.5947V86.4867Z" fill="black"/>
    <path d="M38.0542 86.4863L34.5947 86.4867V89.9458H38.0542V86.4863Z" fill="black"/>
    <path d="M44.9731 86.4867L41.5137 86.4863V89.9458H44.9731L44.9731 86.4867Z" fill="black"/>
    <path d="M55.3516 86.4867H51.8921L51.8921 89.9458H55.3516L55.3516 86.4867Z" fill="black"/>
    <path d="M69.189 86.4867H65.73L65.73 89.9458H69.1894L69.189 86.4867Z" fill="black"/>
    <path d="M72.6484 86.4867H69.189L69.1894 89.9458H72.6484V86.4867Z" fill="black"/>
    <path d="M76.1084 86.4867H72.6484V89.9458H76.1084V86.4867Z" fill="black"/>
    <path d="M79.5674 86.4867H76.1084V89.9458H79.5674L79.5674 86.4867Z" fill="black"/>
    <path d="M83.027 86.4867H79.5674L79.5674 89.9458H83.027V86.4867Z" fill="black"/>
    <path d="M86.4863 86.4867H83.027V89.9458H86.4867L86.4863 86.4867Z" fill="black"/>
    <path d="M96.8647 86.4867H93.4053L93.4053 89.9458H96.8647V86.4867Z" fill="black"/>
    <path d="M100.324 86.4863L96.8647 86.4867V89.9458H100.324V86.4863Z" fill="black"/>
    <path d="M107.243 86.4863H103.784V89.9458H107.243V86.4863Z" fill="black"/>
    <path d="M110.703 86.4867L107.243 86.4863V89.9458H110.703V86.4867Z" fill="black"/>
    <path d="M117.622 86.4867H114.162L114.162 89.9458H117.622V86.4867Z" fill="black"/>
    <path d="M121.081 86.4863L117.622 86.4867V89.9458H121.081V86.4863Z" fill="black"/>
    <path d="M10.3784 89.9463H6.91895V93.4058H10.3784V89.9463Z" fill="black"/>
    <path d="M13.8379 89.9463H10.3784V93.4058H13.8379V89.9463Z" fill="black"/>
    <path d="M17.2974 89.9458L13.8379 89.9463V93.4058H17.2973L17.2974 89.9458Z" fill="black"/>
    <path d="M24.2163 89.9458H20.7569L20.7568 93.4058H24.2163L24.2163 89.9458Z" fill="black"/>
    <path d="M31.1353 89.9458H27.6758L27.6757 93.4058H31.1351L31.1353 89.9458Z" fill="black"/>
    <path d="M34.5947 89.9458H31.1353L31.1351 93.4058H34.5946L34.5947 89.9458Z" fill="black"/>
    <path d="M44.9731 89.9458H41.5137L41.5136 93.4058H44.973L44.9731 89.9458Z" fill="black"/>
    <path d="M48.4324 89.9463L44.9731 89.9458L44.973 93.4058H48.4324V89.9463Z" fill="black"/>
    <path d="M55.3516 89.9458H51.8921L51.8919 93.4058H55.3514L55.3516 89.9458Z" fill="black"/>
    <path d="M58.8109 89.9463L55.3516 89.9458L55.3514 93.4058H58.8109V89.9463Z" fill="black"/>
    <path d="M62.2703 89.9463H58.8109V93.4058H62.2703V89.9463Z" fill="black"/>
    <path d="M65.73 89.9458L62.2703 89.9463V93.4058H65.7298L65.73 89.9458Z" fill="black"/>
    <path d="M69.1894 89.9458H65.73L65.7298 93.4058H69.1892L69.1894 89.9458Z" fill="black"/>
    <path d="M79.5674 89.9458H76.1084L76.1081 93.4058H79.5676L79.5674 89.9458Z" fill="black"/>
    <path d="M83.027 89.9458H79.5674L79.5676 93.4058H83.0271L83.027 89.9458Z" fill="black"/>
    <path d="M86.4867 89.9458H83.027L83.0271 93.4058H86.4865L86.4867 89.9458Z" fill="black"/>
    <path d="M93.4053 89.9458L89.946 89.9463V93.4058H93.4055L93.4053 89.9458Z" fill="black"/>
    <path d="M96.8647 89.9458H93.4053L93.4055 93.4058H96.8649L96.8647 89.9458Z" fill="black"/>
    <path d="M100.324 89.9458H96.8647L96.8649 93.4058H100.324L100.324 89.9458Z" fill="black"/>
    <path d="M103.784 89.9458H100.324L100.324 93.4058H103.784L103.784 89.9458Z" fill="black"/>
    <path d="M107.243 89.9458H103.784L103.784 93.4058H107.243L107.243 89.9458Z" fill="black"/>
    <path d="M110.703 89.9458H107.243L107.243 93.4058H110.703L110.703 89.9458Z" fill="black"/>
    <path d="M117.622 89.9458H114.162L114.162 93.4058H117.622L117.622 89.9458Z" fill="black"/>
    <path d="M38.0542 93.4062L34.5946 93.4058L34.5947 96.8657H38.0542V93.4062Z" fill="black"/>
    <path d="M44.973 93.4058H41.5136L41.5137 96.8657H44.9731L44.973 93.4058Z" fill="black"/>
    <path d="M48.4324 93.4058H44.973L44.9731 96.8657H48.4326L48.4324 93.4058Z" fill="black"/>
    <path d="M55.3514 93.4058H51.8919L51.8921 96.8657H55.3516L55.3514 93.4058Z" fill="black"/>
    <path d="M58.8109 93.4058H55.3514L55.3516 96.8657H58.811L58.8109 93.4058Z" fill="black"/>
    <path d="M62.2703 93.4058H58.8109L58.811 96.8657H62.2705L62.2703 93.4058Z" fill="black"/>
    <path d="M65.7298 93.4058H62.2703L62.2705 96.8657H65.73L65.7298 93.4058Z" fill="black"/>
    <path d="M69.1892 93.4058H65.7298L65.73 96.8657H69.1894L69.1892 93.4058Z" fill="black"/>
    <path d="M83.0271 93.4058H79.5676L79.5674 96.8657H83.027L83.0271 93.4058Z" fill="black"/>
    <path d="M86.4865 93.4058H83.0271L83.027 96.8657H86.4867L86.4865 93.4058Z" fill="black"/>
    <path d="M89.946 93.4058H86.4865L86.4867 96.8657H89.9458L89.946 93.4058Z" fill="black"/>
    <path d="M93.4055 93.4058H89.946L89.9458 96.8657H93.4053L93.4055 93.4058Z" fill="black"/>
    <path d="M107.243 93.4058H103.784L103.784 96.8657H107.243L107.243 93.4058Z" fill="black"/>
    <path d="M114.162 93.4058H110.703L110.703 96.8657H114.162L114.162 93.4058Z" fill="black"/>
    <path d="M38.0542 96.8657H34.5947V100.325H38.0542V96.8657Z" fill="black"/>
    <path d="M41.5137 96.8657H38.0542V100.325H41.5137L41.5137 96.8657Z" fill="black"/>
    <path d="M44.9731 96.8657H41.5137L41.5137 100.325H44.9731V96.8657Z" fill="black"/>
    <path d="M58.811 96.8657H55.3516L55.3516 100.325H58.811V96.8657Z" fill="black"/>
    <path d="M62.2705 96.8657H58.811V100.325H62.2705V96.8657Z" fill="black"/>
    <path d="M72.6484 96.8652L69.1894 96.8657L69.189 100.325H72.6484V96.8652Z" fill="black"/>
    <path d="M93.4053 96.8657H89.9458L89.9458 100.325H93.4053V96.8657Z" fill="black"/>
    <path d="M100.324 96.8652H96.8647V100.325H100.324V96.8652Z" fill="black"/>
    <path d="M107.243 96.8657H103.784V100.325H107.243V96.8657Z" fill="black"/>
    <path d="M110.703 96.8657H107.243V100.325H110.703V96.8657Z" fill="black"/>
    <path d="M48.4324 100.325L44.9731 100.325L44.973 103.785H48.4324V100.325Z" fill="black"/>
    <path d="M58.811 100.325H55.3516L55.3514 103.785H58.8109L58.811 100.325Z" fill="black"/>
    <path d="M62.2705 100.325H58.811L58.8109 103.785H62.2703L62.2705 100.325Z" fill="black"/>
    <path d="M65.7298 100.325L62.2705 100.325L62.2703 103.785H65.7298V100.325Z" fill="black"/>
    <path d="M76.1082 100.325L72.6484 100.325L72.6487 103.785H76.1082V100.325Z" fill="black"/>
    <path d="M86.4865 100.325H83.0272V103.785H86.4865V100.325Z" fill="black"/>
    <path d="M93.4053 100.325H89.9458L89.946 103.785H93.4055L93.4053 100.325Z" fill="black"/>
    <path d="M107.243 100.325H103.784L103.784 103.785H107.243L107.243 100.325Z" fill="black"/>
    <path d="M121.081 100.325H117.622V103.785H121.081V100.325Z" fill="black"/>
    <path d="M38.0542 103.784H34.5947V107.244H38.0542V103.784Z" fill="black"/>
    <path d="M48.4324 103.785H44.973L44.9731 107.244H48.4326L48.4324 103.785Z" fill="black"/>
    <path d="M51.8921 103.784L48.4324 103.785L48.4326 107.244H51.8921V103.784Z" fill="black"/>
    <path d="M55.3514 103.785L51.8921 103.784V107.244H55.3516L55.3514 103.785Z" fill="black"/>
    <path d="M58.8109 103.785H55.3514L55.3516 107.244H58.811L58.8109 103.785Z" fill="black"/>
    <path d="M65.7298 103.785H62.2703L62.2705 107.244H65.73L65.7298 103.785Z" fill="black"/>
    <path d="M76.1082 103.785H72.6487L72.6489 107.244H76.1084L76.1082 103.785Z" fill="black"/>
    <path d="M86.4865 103.785H83.0272L83.0273 107.244H86.4867L86.4865 103.785Z" fill="black"/>
    <path d="M93.4055 103.785H89.946L89.9458 107.244H93.4053L93.4055 103.785Z" fill="black"/>
    <path d="M96.8647 103.784L93.4055 103.785L93.4053 107.244H96.8647V103.784Z" fill="black"/>
    <path d="M100.324 103.784H96.8647V107.244H100.324V103.784Z" fill="black"/>
    <path d="M103.784 103.785L100.324 103.784V107.244H103.784L103.784 103.785Z" fill="black"/>
    <path d="M107.243 103.785H103.784L103.784 107.244H107.243L107.243 103.785Z" fill="black"/>
    <path d="M110.703 103.784L107.243 103.785L107.243 107.244H110.703V103.784Z" fill="black"/>
    <path d="M121.081 103.785H117.622L117.622 107.244H121.081L121.081 103.785Z" fill="black"/>
    <path d="M41.5136 107.243L38.0542 107.244L38.0541 110.703H41.5136V107.243Z" fill="black"/>
    <path d="M44.9731 107.244L41.5136 107.243V110.703H44.973L44.9731 107.244Z" fill="black"/>
    <path d="M51.8921 107.244H48.4326L48.4325 110.703H51.8919L51.8921 107.244Z" fill="black"/>
    <path d="M55.3516 107.244H51.8921L51.8919 110.703H55.3514L55.3516 107.244Z" fill="black"/>
    <path d="M72.6489 107.244L69.1892 107.243V110.703H72.6487L72.6489 107.244Z" fill="black"/>
    <path d="M76.1084 107.244H72.6489L72.6487 110.703H76.1082L76.1084 107.244Z" fill="black"/>
    <path d="M79.5676 107.243L76.1084 107.244L76.1082 110.703H79.5676V107.243Z" fill="black"/>
    <path d="M89.9458 107.244H86.4867L86.4865 110.703H89.946L89.9458 107.244Z" fill="black"/>
    <path d="M100.324 107.244H96.8647L96.8649 110.703H100.324L100.324 107.244Z" fill="black"/>
    <path d="M103.784 107.244H100.324L100.324 110.703H103.784L103.784 107.244Z" fill="black"/>
    <path d="M107.243 107.244H103.784L103.784 110.703H107.243L107.243 107.244Z" fill="black"/>
    <path d="M110.703 107.244H107.243L107.243 110.703H110.703L110.703 107.244Z" fill="black"/>
    <path d="M114.162 107.243L110.703 107.244L110.703 110.703H114.162V107.243Z" fill="black"/>
    <path d="M117.622 107.244L114.162 107.243V110.703H117.622L117.622 107.244Z" fill="black"/>
    <path d="M41.5136 110.703H38.0541V114.163H41.5136V110.703Z" fill="black"/>
    <path d="M51.8919 110.703H48.4325V114.163H51.8919V110.703Z" fill="black"/>
    <path d="M58.8109 110.703L55.3514 110.703L55.3514 114.163H58.8109V110.703Z" fill="black"/>
    <path d="M62.2703 110.703H58.8109V114.163H62.2703V110.703Z" fill="black"/>
    <path d="M72.6487 110.703H69.1892V114.163H72.6487V110.703Z" fill="black"/>
    <path d="M79.5676 110.703H76.1082L76.1081 114.163H79.5676V110.703Z" fill="black"/>
    <path d="M83.0271 110.703L79.5676 110.703V114.163H83.0271V110.703Z" fill="black"/>
    <path d="M96.8649 110.703L93.4054 110.703V114.163H96.8649L96.8649 110.703Z" fill="black"/>
    <path d="M100.324 110.703H96.8649L96.8649 114.163H100.324V110.703Z" fill="black"/>
    <path d="M103.784 110.703H100.324V114.163H103.784V110.703Z" fill="black"/>
    <path d="M107.243 110.703H103.784V114.163H107.243V110.703Z" fill="black"/>
    <path d="M110.703 110.703H107.243V114.163H110.703V110.703Z" fill="black"/>
    <path d="M48.4325 114.163L44.9731 114.163V117.623H48.4326L48.4325 114.163Z" fill="black"/>
    <path d="M51.8919 114.163H48.4325L48.4326 117.623H51.8921L51.8919 114.163Z" fill="black"/>
    <path d="M55.3514 114.163H51.8919L51.8921 117.623H55.3516L55.3514 114.163Z" fill="black"/>
    <path d="M62.2703 114.163H58.8109L58.811 117.623H62.2705L62.2703 114.163Z" fill="black"/>
    <path d="M65.73 114.163L62.2703 114.163L62.2705 117.623H65.73V114.163Z" fill="black"/>
    <path d="M69.1892 114.163L65.73 114.163V117.623H69.1894L69.1892 114.163Z" fill="black"/>
    <path d="M72.6487 114.163H69.1892L69.1894 117.623H72.6484L72.6487 114.163Z" fill="black"/>
    <path d="M83.0271 114.163H79.5676L79.5674 117.623H83.027L83.0271 114.163Z" fill="black"/>
    <path d="M89.9458 114.163H86.4863V117.623H89.9458V114.163Z" fill="black"/>
    <path d="M93.4054 114.163L89.9458 114.163V117.623H93.4053L93.4054 114.163Z" fill="black"/>
    <path d="M100.324 114.163H96.8649L96.8647 117.623H100.324L100.324 114.163Z" fill="black"/>
    <path d="M38.0542 117.622H34.5947V121.082H38.0542V117.622Z" fill="black"/>
    <path d="M44.9731 117.623L41.5137 117.622V121.082H44.9731L44.9731 117.623Z" fill="black"/>
    <path d="M69.1894 117.623H65.73L65.73 121.082H69.1894V117.623Z" fill="black"/>
    <path d="M76.1084 117.622L72.6484 117.623L72.6489 121.082H76.1084V117.622Z" fill="black"/>
    <path d="M79.5674 117.623L76.1084 117.622V121.082H79.5674L79.5674 117.623Z" fill="black"/>
    <path d="M83.027 117.623H79.5674L79.5674 121.082H83.027V117.623Z" fill="black"/>
    <path d="M86.4863 117.623H83.027V121.082H86.4867L86.4863 117.623Z" fill="black"/>
    <path d="M89.9458 117.623H86.4863L86.4867 121.082H89.9458V117.623Z" fill="black"/>
    <path d="M93.4053 117.623H89.9458V121.082H93.4053V117.623Z" fill="black"/>
    <path d="M96.8647 117.623H93.4053V121.082H96.8647L96.8647 117.623Z" fill="black"/>
    <path d="M100.324 117.623H96.8647L96.8647 121.082H100.324V117.623Z" fill="black"/>
    <path d="M110.703 117.622H107.243V121.082H110.703V117.622Z" fill="black"/>
    <path d="M121.081 117.622H117.622V121.082H121.081V117.622Z" fill="black"/>
    <path d="M6.91895 6.91943V31.1357H31.1352V6.91943H6.91895ZM27.5027 27.5032H10.5514V10.5519H27.5027V27.5032Z" fill="black"/>
    <path d="M96.8649 6.91943V31.1357H121.081V6.91943H96.8649ZM117.449 27.5032H100.497V10.5519H117.449V27.5032Z" fill="black"/>
    <path d="M6.91895 96.8652V121.081H31.1352V96.8652H6.91895ZM27.5027 117.449H10.5514V100.498H27.5027V117.449Z" fill="black"/>
    <path d="M24.2163 13.8388H13.8379V24.2171H24.2163V13.8388Z" fill="black"/>
    <path d="M114.162 13.8388H103.784V24.2171H114.162V13.8388Z" fill="black"/>
    <path d="M24.2163 103.784H13.8379V114.163H24.2163V103.784Z" fill="black"/>
</svg>
