<svg width="40" height="41" viewBox="0 0 40 41" fill="none"
    xmlns="http://www.w3.org/2000/svg">
    <path d="M0 20.5C0 9.45431 8.95431 0.5 20 0.5V0.5C31.0457 0.5 40 9.45431 40 20.5V20.5C40 31.5457 31.0457 40.5 20 40.5V40.5C8.95431 40.5 0 31.5457 0 20.5V20.5Z" fill="#FF2C48"/>
    <g clip-path="url(#clip0_238_42)">
        <path d="M18.5863 25.5965C18.9136 25.2108 19.1528 24.7583 19.2872 24.2706C19.4216 23.7829 19.4479 23.2717 19.3643 22.7728L18.8683 19.7969H12.9896L12.4936 22.7728C12.41 23.2717 12.4363 23.7829 12.5707 24.2706C12.7051 24.7583 12.9442 25.2108 13.2716 25.5965C13.7747 26.191 14.4629 26.5992 15.2258 26.7557V31.0938H13.35V32.5H18.5079V31.0938H16.6321V26.7557C17.395 26.5992 18.0832 26.191 18.5863 25.5965ZM24.2726 21.2031H27.5539V26.3594H24.2726V21.2031ZM20.757 8.5H24.9757V11.3125H20.757V8.5Z" fill="white"/>
        <path d="M27.5542 19.7969V18.4375C27.5542 16.8695 26.4486 15.5548 24.9761 15.2321V12.7188H20.7573V15.2321C19.2996 15.5516 18.2021 16.8434 18.1802 18.3906H20.0599L20.2557 19.5657L20.7517 22.5416C20.9884 23.962 20.5904 25.4067 19.6596 26.5055C19.2472 26.9923 18.7417 27.3921 18.1792 27.684V29.6875H19.9144V32.5H27.5542V27.7656H22.8667V19.7969H27.5542Z" fill="white"/>
    </g>
    <defs>
        <clipPath id="clip0_238_42">
            <rect width="24" height="24" fill="white" transform="translate(8 8.5)"/>
        </clipPath>
    </defs>
</svg>
