<svg width="40" height="41" viewBox="0 0 40 41" fill="none"
    xmlns="http://www.w3.org/2000/svg">
    <g clip-path="url(#clip0_239_66)">
        <path d="M0 20.5C0 9.45431 8.95431 0.5 20 0.5C31.0457 0.5 40 9.45431 40 20.5C40 31.5457 31.0457 40.5 20 40.5C8.95431 40.5 0 31.5457 0 20.5Z" fill="#7F56D9"/>
        <mask id="mask0_239_66" style="mask-type:luminance" maskUnits="userSpaceOnUse" x="8" y="8" width="24" height="25">
            <path d="M32 8.5H8V32.5H32V8.5Z" fill="white"/>
        </mask>
        <g mask="url(#mask0_239_66)">
            <path d="M20 8.5C13.4089 8.5 8 13.9089 8 20.5C8 27.0911 13.4089 32.5 20 32.5C26.5911 32.5 32 27.0911 32 20.5C32 13.9089 26.5911 8.5 20 8.5ZM9.40625 20.5C9.40625 14.6841 14.1841 9.90625 20 9.90625C22.6543 9.90625 25.0756 10.946 26.9314 12.5702L21.6172 17.8844C21.5469 17.814 21.4766 17.7578 21.4062 17.7016V15.5781H18.5938V17.7016C17.6933 18.373 17.1875 19.4335 17.1875 20.5V22.314L12.0702 27.4314C10.446 25.5756 9.40625 23.1543 9.40625 20.5ZM20 31.0938C17.3457 31.0938 14.9244 30.054 13.0686 28.4298L27.9298 13.5686C29.554 15.4244 30.5938 17.8457 30.5938 20.5C30.5938 26.3159 25.8159 31.0938 20 31.0938Z" fill="white"/>
            <path d="M18.5938 11.3594H21.4062V14.1719H18.5938V11.3594ZM17.1875 28.9375H22.8125V20.6688L17.1875 26.2938V28.9375Z" fill="white"/>
        </g>
    </g>
    <defs>
        <clipPath id="clip0_239_66">
            <rect width="40" height="41" fill="white"/>
        </clipPath>
    </defs>
</svg>
