<svg width="56" height="56" viewBox="0 0 56 56" fill="none" xmlns="http://www.w3.org/2000/svg">
<rect x="4" y="4" width="48" height="48" rx="8" fill="#1877F2"/>
<g clip-path="url(#clip0_22_727)">
<path d="M48 28C48 16.9543 39.0457 8 28 8C16.9543 8 8 16.9543 8 28C8 37.9824 15.3137 46.2566 24.875 47.757V33.7813H19.7969V28H24.875V23.5938C24.875 18.5813 27.8609 15.8125 32.4293 15.8125C34.6168 15.8125 36.9062 16.2031 36.9062 16.2031V21.125H34.3844C31.9 21.125 31.125 22.6668 31.125 24.25V28H36.6719L35.7852 33.7813H31.125V47.757C40.6863 46.2566 48 37.9824 48 28Z" fill="#1877F2"/>
<path d="M35.7852 33.7812L36.6719 28H31.125V24.25C31.125 22.6684 31.9 21.125 34.3844 21.125H36.9062V16.2031C36.9062 16.2031 34.6176 15.8125 32.4293 15.8125C27.8609 15.8125 24.875 18.5813 24.875 23.5938V28H19.7969V33.7812H24.875V47.757C26.9457 48.081 29.0543 48.081 31.125 47.757V33.7812H35.7852Z" fill="white"/>
</g>
<defs>
<clipPath id="clip0_22_727">
<rect width="40" height="40" fill="white" transform="translate(8 8)"/>
</clipPath>
</defs>
</svg>
