<svg width="56" height="56" viewBox="0 0 56 56" fill="none" xmlns="http://www.w3.org/2000/svg">
<g clip-path="url(#clip0_22_755)">
<path d="M49.2855 6.61518C47.583 4.93663 45.2874 3.99696 42.8966 4.00001H13.1035C11.9078 3.99925 10.7236 4.23419 9.61881 4.69141C8.51399 5.14864 7.51013 5.81916 6.66464 6.66465C5.81916 7.51013 5.14863 8.51399 4.69141 9.61882C4.23419 10.7236 3.99924 11.9078 4 13.1035V34.6207C3.99924 35.8164 4.23419 37.0005 4.69141 38.1053C5.14863 39.2102 5.81916 40.214 6.66464 41.0595C7.51013 41.905 8.51399 42.5755 9.61881 43.0327C10.7236 43.49 11.9078 43.7249 13.1035 43.7241H36.3917C36.6284 43.7233 36.8535 43.8226 37.0124 43.9973L43.9476 51.7352C44.0703 51.8651 44.2318 51.9518 44.4079 51.9823C44.584 52.0128 44.7652 51.9855 44.9245 51.9045C45.0838 51.8235 45.2125 51.693 45.2915 51.5327C45.3705 51.3724 45.3955 51.1909 45.3628 51.0152L44.2952 44.3862C44.2606 44.184 44.3037 43.9763 44.4157 43.8044C44.5277 43.6326 44.7004 43.5093 44.8993 43.4593C46.5349 43.0653 48.0334 42.236 49.2359 41.0593C50.1068 40.2278 50.8006 39.2288 51.2756 38.1224C51.7507 37.0159 51.997 35.8248 52 34.6207V13.1035C52.0016 11.8958 51.7623 10.7 51.2962 9.58594C50.8301 8.47187 50.1466 7.46193 49.2855 6.61518Z" fill="#F29C1F"/>
<path d="M52 13.1035V34.6208C51.997 35.8249 51.7506 37.016 51.2756 38.1224C50.8006 39.2289 50.1068 40.2279 49.2358 41.0594L31.3848 23.8621L49.2855 6.61523C50.1465 7.46199 50.8301 8.47193 51.2962 9.58599C51.7623 10.7001 52.0015 11.8959 52 13.1035Z" fill="#F0C419"/>
<path d="M49.2859 6.61518L31.3852 23.8621L30.8721 24.3586C30.1015 25.1031 29.0719 25.5193 28.0004 25.5193C26.9289 25.5193 25.8992 25.1031 25.1286 24.3586L24.6155 23.8621L9.10657 8.91587L6.71484 6.61518C8.41735 4.93663 10.713 3.99696 13.1038 4.00001H42.8969C45.2877 3.99696 47.5834 4.93663 49.2859 6.61518Z" fill="#F3D55B"/>
<path d="M24.6152 23.8621L6.7145 41.109C5.85279 40.2628 5.16879 39.2529 4.70265 38.1388C4.23651 37.0246 3.99763 35.8285 4.00002 34.6208V13.1035C3.99846 11.8959 4.23773 10.7001 4.70382 9.58599C5.1699 8.47193 5.85346 7.46199 6.7145 6.61523L9.10622 8.91592L24.6152 23.8621Z" fill="#F0C419"/>
<path d="M27.1724 8.13857H15.5862C15.3667 8.13857 15.1562 8.05138 15.001 7.89618C14.8458 7.74097 14.7586 7.53047 14.7586 7.31098C14.7586 7.0915 14.8458 6.881 15.001 6.72579C15.1562 6.57059 15.3667 6.4834 15.5862 6.4834H27.1724C27.3919 6.4834 27.6024 6.57059 27.7576 6.72579C27.9128 6.881 28 7.0915 28 7.31098C28 7.53047 27.9128 7.74097 27.7576 7.89618C27.6024 8.05138 27.3919 8.13857 27.1724 8.13857Z" fill="white"/>
<path d="M12.2758 8.13857C12.7329 8.13857 13.1034 7.76805 13.1034 7.31098C13.1034 6.85392 12.7329 6.4834 12.2758 6.4834C11.8188 6.4834 11.4482 6.85392 11.4482 7.31098C11.4482 7.76805 11.8188 8.13857 12.2758 8.13857Z" fill="white"/>
</g>
<defs>
<clipPath id="clip0_22_755">
<rect width="48" height="48" fill="white" transform="translate(4 4)"/>
</clipPath>
</defs>
</svg>
